
<svg width="471" height="113" viewBox="0 0 471 113" fill="none" xmlns="http://www.w3.org/2000/svg">
<path d="M108.422 52.4688C101.328 53.875 95.3906 55.5312 90.6094 57.4375C87.7344 61.6562 84.5781 66.7188 81.1406 72.625L78.6562 76.9844C78.2188 77.7656 77.5469 78.8906 76.6406 80.3594C75.6406 82.0781 74.5938 82.9375 73.5 82.9375C72.9062 82.9375 72.4062 82.7031 72 82.2344C71.5938 81.8281 71.3906 81.375 71.3906 80.875C71.3906 80 72.5625 77.5156 74.9062 73.4219C76.1875 71.2031 78.125 68.0625 80.7188 64C81.7188 62.4375 82.5156 61.1562 83.1094 60.1562C81.2344 60.6875 79.5156 61.2969 77.9531 61.9844C77.2031 62.3281 76.5781 62.5 76.0781 62.5C75.4531 62.5 74.9688 62.2188 74.625 61.6562C74.375 61.3125 74.25 60.9062 74.25 60.4375C74.25 59.375 74.625 58.625 75.375 58.1875C76.5938 57.4375 78.7812 56.5781 81.9375 55.6094C84.2812 54.8594 86.1406 54.1719 87.5156 53.5469C88.1719 52.7344 89.8906 50.3438 92.6719 46.375C93.8594 44.6562 97.2344 40.5938 102.797 34.1875C106.797 29.5 110.922 25.1406 115.172 21.1094C117.641 18.7344 119.531 17.5469 120.844 17.5469C121.656 17.5469 122.359 17.875 122.953 18.5312C123.453 19.125 123.703 19.7813 123.703 20.5C123.703 21.375 123.266 22.9062 122.391 25.0938C120.891 28.9375 119.453 33.0469 118.078 37.4219C116.891 41.2969 116.094 44.2656 115.688 46.3281C116.25 46.3281 116.625 46.3125 116.812 46.2812C117.719 46.25 118.469 46.2344 119.062 46.2344C120.875 46.2344 121.781 46.9219 121.781 48.2969C121.781 48.8906 121.578 49.4844 121.172 50.0781C120.797 50.6406 120.359 50.9844 119.859 51.1094C119.672 51.1719 119.156 51.2031 118.312 51.2031C116.531 51.2031 115.203 51.3125 114.328 51.5312C113.578 53.75 112.391 59.4219 110.766 68.5469C109.922 74.6094 109.516 78.3281 109.547 79.7031C109.547 81.9531 108.875 83.0781 107.531 83.0781C106.469 83.0781 105.641 82.5312 105.047 81.4375C104.609 80.6875 104.391 79.6719 104.391 78.3906C104.391 74.0781 105.156 68.2656 106.688 60.9531C107.469 57.2656 108.047 54.4375 108.422 52.4688ZM109.734 47.4062C110.016 46.5 110.734 44.0781 111.891 40.1406C112.172 39.1094 112.891 37.0625 114.047 34C115.203 30.8438 116.125 28.3125 116.812 26.4062C114.781 27.75 112.719 29.5313 110.625 31.75C103.25 39.6875 98.0469 46.1719 95.0156 51.2031C96.1719 50.9219 98.6562 50.2188 102.469 49.0938C103.562 48.7812 105.984 48.2188 109.734 47.4062ZM132.047 74.3125C135.391 71.875 137.875 69.6562 139.5 67.6562C141.906 64.75 143.609 62.3906 144.609 60.5781C145.109 59.7656 145.625 59.3594 146.156 59.3594C146.906 59.3594 147.281 59.7188 147.281 60.4375C147.281 61.2812 146.688 62.6875 145.5 64.6562C141.812 70.6562 136.281 75.8906 128.906 80.3594C125.469 87.5469 122.938 92.4219 121.312 94.9844C117 101.734 112.938 105.109 109.125 105.109C107.125 105.109 105.688 104.328 104.812 102.766C104.312 101.859 104.062 100.828 104.062 99.6719C104.062 94.7656 107.219 90.0625 113.531 85.5625C114.531 84.8125 118.578 82.4688 125.672 78.5312C127.047 75.625 128.109 73.3438 128.859 71.6875C125.578 75.125 122.859 76.8438 120.703 76.8438C119.359 76.8438 118.312 76.1562 117.562 74.7812C117.094 73.875 116.859 72.9375 116.859 71.9688C116.859 69.7188 117.781 66.8281 119.625 63.2969C122.25 58.2031 125.406 54.1719 129.094 51.2031C132.188 48.7344 134.922 47.5 137.297 47.5C138.516 47.5 139.562 47.9531 140.438 48.8594C141.031 49.4531 141.328 50.3281 141.328 51.4844C141.328 52.9219 140.844 54.7031 139.875 56.8281C140.594 57.5156 140.953 58.0312 140.953 58.375C140.953 58.5938 140.797 58.9062 140.484 59.3125C139.641 60.4688 138.281 62.6406 136.406 65.8281C134.75 68.6094 133.297 71.4375 132.047 74.3125ZM131.719 63.4844C131.281 63.0156 131.062 62.6875 131.062 62.5C131.062 62.2188 131.297 61.8594 131.766 61.4219C133.328 59.9219 134.594 58.3594 135.562 56.7344C136.344 55.4531 136.734 54.4531 136.734 53.7344C136.734 52.8906 136.344 52.4688 135.562 52.4688C134.219 52.4688 132.297 53.75 129.797 56.3125C126.828 59.3438 124.516 62.7344 122.859 66.4844C122.047 68.3594 121.641 69.7969 121.641 70.7969C121.641 71.3594 121.766 71.7812 122.016 72.0625C122.266 72.3438 122.625 72.4844 123.094 72.4844C124.188 72.4844 125.719 71.3594 127.688 69.1094C128.938 67.6719 130 66.2656 130.875 64.8906C131.469 63.9844 131.75 63.5156 131.719 63.4844ZM122.859 83.9688C118.734 85.7188 115.094 88.375 111.938 91.9375C110.469 93.5938 109.422 95.3438 108.797 97.1875C108.609 97.75 108.516 98.2188 108.516 98.5938C108.516 99 108.609 99.3594 108.797 99.6719C109.141 100.234 109.625 100.516 110.25 100.516C112.188 100.516 114.453 98.4375 117.047 94.2812C119.297 90.6875 121.234 87.25 122.859 83.9688ZM158.766 59.1719C161.078 56.7656 163.391 54.75 165.703 53.125C168.672 51.0625 170.797 50.0312 172.078 50.0312C172.609 50.0312 173.125 50.25 173.625 50.6875C174.188 51.1875 174.469 51.7656 174.469 52.4219C174.469 53.2656 173.797 54.5781 172.453 56.3594C169.859 59.7969 167.891 62.9219 166.547 65.7344C165.359 68.1719 164.766 69.8281 164.766 70.7031C164.766 71.5469 165.172 71.9688 165.984 71.9688C167.672 71.9688 170.516 68.9688 174.516 62.9688C175.328 61.75 176.062 61.1406 176.719 61.1406C177.375 61.1406 177.703 61.5156 177.703 62.2656C177.703 63.4844 176.516 65.8125 174.141 69.25C172.078 72.25 169.922 74.5469 167.672 76.1406C166.078 77.2344 164.641 77.7812 163.359 77.7812C162.016 77.7812 161.047 77.2031 160.453 76.0469C160.078 75.3281 159.891 74.5312 159.891 73.6562C159.891 70.875 160.875 67.7031 162.844 64.1406C163.312 63.2969 164.719 60.8906 167.062 56.9219C160.688 60.1406 155.297 67.0938 150.891 77.7812C150.484 79 149.859 79.6094 149.016 79.6094C148.422 79.6094 147.938 79.4062 147.562 79C147.188 78.5625 147 78.0312 147 77.4062C147 76.375 148 73.4531 150 68.6406C153.719 59.7031 157.188 52.1406 160.406 45.9531C163.625 39.7031 167.203 33.2188 171.141 26.5C172.078 24.875 172.812 23.7812 173.344 23.2188C173.875 22.6562 174.438 22.375 175.031 22.375C175.594 22.375 176.078 22.6719 176.484 23.2656C176.797 23.7031 176.953 24.2031 176.953 24.7656C176.953 25.6406 176.453 26.8125 175.453 28.2812C172.078 33.5 168.719 39.2344 165.375 45.4844C161.781 52.1719 159.578 56.7344 158.766 59.1719ZM191.156 70.6094C190.125 72.4219 189.109 73.9531 188.109 75.2031C186.141 77.6406 184.188 78.8594 182.25 78.8594C180.562 78.8594 179.25 78.0625 178.312 76.4688C177.719 75.4375 177.422 74.2188 177.422 72.8125C177.422 69.3438 178.516 65.5156 180.703 61.3281C183.141 56.6719 186.078 53.0938 189.516 50.5938C191.766 48.9688 193.938 48.1562 196.031 48.1562C197.344 48.1562 198.438 48.5625 199.312 49.375C200.062 50.0938 200.438 50.9062 200.438 51.8125C200.438 52.5 200.172 53.4531 199.641 54.6719C200.109 55.3281 200.344 55.9062 200.344 56.4062C200.344 57.0625 199.906 58.1406 199.031 59.6406C198.125 61.1719 197.219 63.2031 196.312 65.7344C195.344 68.4219 194.859 70.5781 194.859 72.2031C194.859 73.5156 195.25 74.5938 196.031 75.4375C196.25 75.6562 196.891 76.0156 197.953 76.5156C198.734 76.8906 199.125 77.5469 199.125 78.4844C199.125 79.0781 198.906 79.5625 198.469 79.9375C198 80.3438 197.453 80.5469 196.828 80.5469C195.141 80.5469 193.688 79.7969 192.469 78.2969C191.469 77.0781 190.969 75.5469 190.969 73.7031C190.969 73.0781 191.031 72.0469 191.156 70.6094ZM197.016 55.1875C196.641 54.5 196.234 54 195.797 53.6875C195.359 53.3438 194.891 53.1719 194.391 53.1719C192.016 53.1719 189.438 55.25 186.656 59.4062C183.594 64 182.062 67.8906 182.062 71.0781C182.062 71.8594 182.203 72.4531 182.484 72.8594C182.797 73.2656 183.25 73.4688 183.844 73.4688C185.344 73.4688 187.094 71.875 189.094 68.6875C190.219 66.9375 191.609 64.3594 193.266 60.9531C194.359 58.7344 195.156 57.2656 195.656 56.5469C195.906 56.1719 196.359 55.7188 197.016 55.1875ZM261.609 49.5156C255.172 50.8281 248.5 52.8594 241.594 55.6094C241.344 56.1094 241.094 56.625 240.844 57.1562C236.531 65.4375 233.625 73.2812 232.125 80.6875C231.812 82.4375 231.109 83.3125 230.016 83.3125C229.203 83.3125 228.484 82.9062 227.859 82.0938C227.359 81.4688 227.109 80.7969 227.109 80.0781C227.109 79.2031 227.5 77.3906 228.281 74.6406C229.062 71.8594 229.875 69.4219 230.719 67.3281C231.031 66.5469 232.016 64.2656 233.672 60.4844C234.078 59.5781 234.484 58.625 234.891 57.625C234.234 57.875 233.328 58.25 232.172 58.75C231.672 58.9688 231.219 59.0781 230.812 59.0781C229.844 59.0781 229.359 58.3438 229.359 56.875C229.359 55.9062 229.766 55.1719 230.578 54.6719C231.203 54.2656 232.312 53.7812 233.906 53.2188C235.594 52.5938 236.922 52.0781 237.891 51.6719C238.516 50.5781 239.703 48.3281 241.453 44.9219C241.766 44.2969 242.812 42.5156 244.594 39.5781C249.688 31.0156 253 24.9219 254.531 21.2969C255.938 18.0156 256.812 16.1562 257.156 15.7188C257.781 14.9063 258.531 14.5 259.406 14.5C260.875 14.5 261.609 15.2187 261.609 16.6562C261.609 19.9375 257.141 28.7969 248.203 43.2344C246.734 45.6094 245.656 47.6719 244.969 49.4219L247.312 48.7656C253.688 46.9219 259.484 45.3125 264.703 43.9375C268.297 37.3125 272.703 29.9688 277.922 21.9062C278.828 20.4687 279.359 19.5781 279.516 19.2344C280.266 17.8906 281.062 17.2188 281.906 17.2188C282.625 17.2188 283.219 17.5156 283.688 18.1094C284.062 18.6094 284.25 19.1562 284.25 19.75C284.25 20.875 283.641 22.4844 282.422 24.5781C282.141 25.0781 280.859 27.0781 278.578 30.5781C274.578 36.7656 272.062 40.9062 271.031 43C271.938 42.9062 272.625 42.8594 273.094 42.8594C275.562 42.8594 276.797 43.4688 276.797 44.6875C276.797 45.4375 276.406 46.1719 275.625 46.8906C275.031 47.4531 274.375 47.7344 273.656 47.7344H271.828C271.078 47.7344 269.953 47.875 268.453 48.1562C261.828 59.9688 257.5 70.3281 255.469 79.2344C254.969 81.2344 254.188 82.2344 253.125 82.2344C252.312 82.2344 251.547 81.7188 250.828 80.6875C250.359 79.9688 250.125 79.2031 250.125 78.3906C250.125 75.3906 253.953 65.7656 261.609 49.5156ZM284.156 70.6094C283.125 72.4219 282.109 73.9531 281.109 75.2031C279.141 77.6406 277.188 78.8594 275.25 78.8594C273.562 78.8594 272.25 78.0625 271.312 76.4688C270.719 75.4375 270.422 74.2188 270.422 72.8125C270.422 69.3438 271.516 65.5156 273.703 61.3281C276.141 56.6719 279.078 53.0938 282.516 50.5938C284.766 48.9688 286.938 48.1562 289.031 48.1562C290.344 48.1562 291.438 48.5625 292.312 49.375C293.062 50.0938 293.438 50.9062 293.438 51.8125C293.438 52.5 293.172 53.4531 292.641 54.6719C293.109 55.3281 293.344 55.9062 293.344 56.4062C293.344 57.0625 292.906 58.1406 292.031 59.6406C291.125 61.1719 290.219 63.2031 289.312 65.7344C288.344 68.4219 287.859 70.5781 287.859 72.2031C287.859 73.5156 288.25 74.5938 289.031 75.4375C289.25 75.6562 289.891 76.0156 290.953 76.5156C291.734 76.8906 292.125 77.5469 292.125 78.4844C292.125 79.0781 291.906 79.5625 291.469 79.9375C291 80.3438 290.453 80.5469 289.828 80.5469C288.141 80.5469 286.688 79.7969 285.469 78.2969C284.469 77.0781 283.969 75.5469 283.969 73.7031C283.969 73.0781 284.031 72.0469 284.156 70.6094ZM290.016 55.1875C289.641 54.5 289.234 54 288.797 53.6875C288.359 53.3438 287.891 53.1719 287.391 53.1719C285.016 53.1719 282.438 55.25 279.656 59.4062C276.594 64 275.062 67.8906 275.062 71.0781C275.062 71.8594 275.203 72.4531 275.484 72.8594C275.797 73.2656 276.25 73.4688 276.844 73.4688C278.344 73.4688 280.094 71.875 282.094 68.6875C283.219 66.9375 284.609 64.3594 286.266 60.9531C287.359 58.7344 288.156 57.2656 288.656 56.5469C288.906 56.1719 289.359 55.7188 290.016 55.1875ZM303.281 62.7344C305.906 59.9844 308.219 57.8281 310.219 56.2656C313.25 53.9219 315.281 52.75 316.312 52.75C316.812 52.75 317.25 52.9375 317.625 53.3125C317.969 53.6562 318.141 54.0312 318.141 54.4375C318.141 55.0312 317.594 56 316.5 57.3438C314.812 59.4688 313.641 61.2812 312.984 62.7812C320.297 55.4375 325.297 51.7656 327.984 51.7656C328.547 51.7656 329.031 51.9375 329.438 52.2812C329.875 52.6562 330.094 53.125 330.094 53.6875C330.094 54.5625 329.422 55.6875 328.078 57.0625C322.172 63.1562 319.219 68.1562 319.219 72.0625C319.219 73.6562 319.5 74.7969 320.062 75.4844L321.281 77.0312C321.531 77.3125 321.656 77.6719 321.656 78.1094C321.656 78.6094 321.453 79.0781 321.047 79.5156C320.578 80.0156 320.047 80.2656 319.453 80.2656C318.422 80.2656 317.469 79.6094 316.594 78.2969C315.531 76.7344 315 74.8906 315 72.7656C315 69.9219 315.812 67.0469 317.438 64.1406C318 63.1094 318.938 61.7344 320.25 60.0156C317.594 62.0156 314.891 64.7656 312.141 68.2656C310.266 70.6406 308.578 73.2969 307.078 76.2344C306.359 77.6406 305.516 78.3438 304.547 78.3438C303.484 78.3438 302.953 77.75 302.953 76.5625C302.953 75.2812 303.828 72.6406 305.578 68.6406C306.578 66.3594 307.812 63.9531 309.281 61.4219C303.938 65.5469 299.922 71.1406 297.234 78.2031C296.578 79.7656 295.703 80.5469 294.609 80.5469C294.109 80.5469 293.703 80.3594 293.391 79.9844C293.047 79.6094 292.875 79.1562 292.875 78.625C292.875 76.7812 293.906 73.4531 295.969 68.6406C298.125 63.5469 300.562 58.9688 303.281 54.9062C305.156 52.0625 306.609 50.6406 307.641 50.6406C308.578 50.6406 309.047 51.1406 309.047 52.1406C309.047 52.5781 308.469 53.6719 307.312 55.4219C305.281 58.7031 303.938 61.1406 303.281 62.7344ZM332.859 72.9062C335.703 71.9375 338.203 71.4531 340.359 71.4531C343.984 71.4531 345.797 72.3906 345.797 74.2656C345.797 74.8281 345.578 75.3438 345.141 75.8125C344.703 76.2812 344.203 76.5156 343.641 76.5156C343.297 76.5156 342.562 76.375 341.438 76.0938C340.781 75.9062 340.141 75.8125 339.516 75.8125C336.859 75.8125 334.344 76.375 331.969 77.5C330.281 78.3125 329.156 78.7188 328.594 78.7188C327.875 78.7188 327.25 78.4844 326.719 78.0156C326.219 77.5781 325.969 77.0938 325.969 76.5625C325.969 75.2812 327.5 72.7031 330.562 68.8281C335.156 63.1094 340.016 58.2344 345.141 54.2031C341.734 54.6094 339.406 54.8125 338.156 54.8125C335.156 54.8125 333.656 53.9219 333.656 52.1406C333.656 51.5781 333.844 51.1094 334.219 50.7344C334.562 50.3906 334.953 50.2188 335.391 50.2188C335.766 50.2188 336.594 50.3281 337.875 50.5469C338.375 50.6406 339.141 50.6875 340.172 50.6875C342.859 50.6875 345.469 50.3906 348 49.7969C348.969 49.5781 349.797 49.4688 350.484 49.4688C351.266 49.4688 351.922 49.75 352.453 50.3125C352.859 50.7188 353.062 51.2188 353.062 51.8125C353.062 52.8438 352.188 53.9688 350.438 55.1875C345.312 59.25 341.703 62.3594 339.609 64.5156C336.641 67.6719 334.391 70.4688 332.859 72.9062ZM364.219 70.6094C363.188 72.4219 362.172 73.9531 361.172 75.2031C359.203 77.6406 357.25 78.8594 355.312 78.8594C353.625 78.8594 352.312 78.0625 351.375 76.4688C350.781 75.4375 350.484 74.2188 350.484 72.8125C350.484 69.3438 351.578 65.5156 353.766 61.3281C356.203 56.6719 359.141 53.0938 362.578 50.5938C364.828 48.9688 367 48.1562 369.094 48.1562C370.406 48.1562 371.5 48.5625 372.375 49.375C373.125 50.0938 373.5 50.9062 373.5 51.8125C373.5 52.5 373.234 53.4531 372.703 54.6719C373.172 55.3281 373.406 55.9062 373.406 56.4062C373.406 57.0625 372.969 58.1406 372.094 59.6406C371.188 61.1719 370.281 63.2031 369.375 65.7344C368.406 68.4219 367.922 70.5781 367.922 72.2031C367.922 73.5156 368.312 74.5938 369.094 75.4375C369.312 75.6562 369.953 76.0156 371.016 76.5156C371.797 76.8906 372.188 77.5469 372.188 78.4844C372.188 79.0781 371.969 79.5625 371.531 79.9375C371.062 80.3438 370.516 80.5469 369.891 80.5469C368.203 80.5469 366.75 79.7969 365.531 78.2969C364.531 77.0781 364.031 75.5469 364.031 73.7031C364.031 73.0781 364.094 72.0469 364.219 70.6094ZM370.078 55.1875C369.703 54.5 369.297 54 368.859 53.6875C368.422 53.3438 367.953 53.1719 367.453 53.1719C365.078 53.1719 362.5 55.25 359.719 59.4062C356.656 64 355.125 67.8906 355.125 71.0781C355.125 71.8594 355.266 72.4531 355.547 72.8594C355.859 73.2656 356.312 73.4688 356.906 73.4688C358.406 73.4688 360.156 71.875 362.156 68.6875C363.281 66.9375 364.672 64.3594 366.328 60.9531C367.422 58.7344 368.219 57.2656 368.719 56.5469C368.969 56.1719 369.422 55.7188 370.078 55.1875Z" fill="#7DD8FF"/>
<path d="M23.744 58.656L1.856 48.8L23.616 38.88H28.416L6.272 48.8L28.544 58.656H23.744Z" fill="#7DD8FF"/>
<path d="M437.304 23.2L406.776 75.808H404.408L434.936 23.2H437.304ZM468.704 48.8L446.816 58.656H442.016L464.288 48.8L442.144 38.88H446.944L468.704 48.8Z" fill="#7DD8FF"/>
</svg>
