
<svg width="36" height="48" viewBox="0 0 178 241" fill="none" xmlns="http://www.w3.org/2000/svg">
<circle cx="64" cy="180" r="50" fill="#D4EEF9"/>
<path d="M5 83L93.3299 7L173 83" stroke="black" stroke-width="9" stroke-linecap="round"/>
<path d="M93 238.039V7.96088" stroke="black" stroke-width="5" stroke-linecap="round"/>
<path d="M45.875 183.016H69.0781C72.2969 183.031 74.9297 184.047 76.9766 186.062C79.0234 188.062 80.1719 190.781 80.4219 194.219L80.4688 195.414C80.4688 199.148 79.4609 202.125 77.4453 204.344C75.4297 206.562 72.6562 207.688 69.125 207.719H45.875V203.266H68.9844C71.4531 203.266 73.375 202.586 74.75 201.227C76.1094 199.867 76.7891 197.93 76.7891 195.414C76.7891 192.867 76.1094 190.922 74.75 189.578C73.3906 188.219 71.4766 187.539 69.0078 187.539H45.875V183.016ZM66.6406 171.414H80V175.914H45.875V163.328C45.875 159.594 46.8281 156.672 48.7344 154.562C50.6406 152.438 53.1641 151.375 56.3047 151.375C59.6172 151.375 62.1719 152.414 63.9688 154.492C65.75 156.555 66.6406 159.516 66.6406 163.375V171.414ZM62.9609 171.414V163.328C62.9609 160.922 62.3984 159.078 61.2734 157.797C60.1328 156.516 58.4922 155.875 56.3516 155.875C54.3203 155.875 52.6953 156.516 51.4766 157.797C50.2578 159.078 49.625 160.836 49.5781 163.07V171.414H62.9609Z" fill="#2B2B2B"/>
</svg>
